<?xml version="1.0" encoding="utf-8"?>
<!-- Generator: Adobe Illustrator 16.0.0, SVG Export Plug-In . SVG Version: 6.00 Build 0)  -->
<!DOCTYPE svg PUBLIC "-//W3C//DTD SVG 1.1//EN" "http://www.w3.org/Graphics/SVG/1.1/DTD/svg11.dtd">
<svg version="1.1" id="Layer_1" xmlns="http://www.w3.org/2000/svg" xmlns:xlink="http://www.w3.org/1999/xlink" x="0px" y="0px"
	 width="864px" height="864px" viewBox="0 0 864 864" enable-background="new 0 0 864 864" xml:space="preserve">
<g>
	<path fill-rule="evenodd" clip-rule="evenodd" d="M603.773,366.258c-5.681-27.314-18.443-50.524-40.035-68.562
		c-0.676-0.695-1.388-2.025-2.024-1.991c-10.616,0.575-21.224,1.32-31.833,2.028c0.322,0.994,0.645,1.989,0.967,2.983
		c6.125,7.479,12.896,14.527,18.229,22.533c8.491,12.744,16.612,25.819,23.688,39.381c3.044,5.833,3.079,13.237,4.481,19.927
		c0.252,15.011,0.502,30.023,0.753,45.034l0.161-0.363c-2.524,13.28-5.049,26.561-7.574,39.84c-1.551,3.64-3.04,7.308-4.664,10.914
		c-11.744,26.097-26.739,50.129-45.639,71.671c-8.156,8.013-16.312,16.024-24.469,24.036c-1.773,1.719-3.441,3.569-5.34,5.137
		c-16.922,13.968-35.617,24.847-55.68,33.828c-27.17,12.163-55.328,20.132-84.828,23.603c-16.026,1.521-32.047,2.884-47.896-1.442
		c-6.409-5.21-14.792-9.243-18.766-15.905c-6.034-10.119-9.008-22.064-13.283-33.233c-1.072-9.813-2.886-19.614-3.065-29.444
		c-0.402-22.048-0.628-44.139,0.292-66.161c0.721-17.237,3.273-34.396,5.012-51.589c0.456-1.406,1.075-2.783,1.345-4.226
		c6.985-37.365,17.615-73.464,38.447-105.72c22.839-35.363,54.222-57.292,97.337-59.952c17.729-0.264,35.458-0.527,53.187-0.791
		c17.325,3.456,34.65,6.912,51.977,10.367c10.285,1.514,20.547,3.23,30.871,4.411c2.9,0.332,5.98-0.912,8.978-1.432
		c8.718-3.811,18.806-5.944,25.898-11.743c22.206-18.158,33.354-42.965,38.036-70.901c4.816-16.458,3.553-33.138,1.666-49.812
		c-0.191-1.691-1.53-3.252-2.338-4.873c-0.746-14.514-7.793-24.48-18.508-24.345c-8.02,0.102-16.316,1.872-23.943,4.489
		c-19.397,6.653-34.992,19.263-48.805,34.057c-13.869,14.853-24.525,31.716-30.335,51.382c-1,6.541-2.375,13.051-2.897,19.63
		c-0.57,7.187,2.902,11.562,10.48,11.984l-0.34-0.214c14.93,6.393,30.236,6.186,45.684,2.438c1.424-0.345,2.566-1.839,3.838-2.799
		c1.391-0.499,3.031-0.679,4.137-1.543c18.602-14.541,28.742-33.914,31.117-57.13c0.934-9.12-6.925-16.852-15.26-16.815
		c-20.402,0.09-33.553,25.119-30.609,41.109c0.135,0.725,0.24,1.791,0.717,2.059c2.182,1.223,4.49,2.219,6.754,3.296
		c0.471-1.94,1.789-4.15,1.271-5.776c-2.606-8.172,0.328-15.053,5.631-20.473c2.654-2.713,8.215-4.849,11.527-3.92
		c2.568,0.72,5.426,6.739,5.157,10.169c-1.312,16.79-8.456,31.173-21.882,41.522c-10.115,7.797-25.763,1.953-28.436-10.429
		c-1.498-6.938-2.742-14.568-1.426-21.369c6.684-34.565,34.094-59.65,65.012-63.007c16.9-1.834,16.243,0.133,18.357,13.875
		c-0.498,14.496-0.997,28.992-1.496,43.487c-5.811,12.782-9.898,26.763-17.791,38.095c-16.492,23.676-38.873,37.741-69.336,31.1
		c-16.648-3.63-32.984-8.686-49.473-13.052c-12.607-3.337-25.232-6.604-37.85-9.901c-0.566-0.706-1.115-2.012-1.7-2.028
		c-12.47-0.35-24.95-0.871-37.409-0.583c-3.463,0.08-6.869,2.639-10.301,4.06c-3.84,1.593-7.997,2.678-11.471,4.854
		c-45.352,28.408-74.636,69.57-92.199,119.244c-7.154,20.235-11.465,41.475-17.069,62.258c-1.013,6.288-2.141,12.562-3.019,18.869
		c-4.88,35.028-3.773,70.065,0.231,105.066c0.441,3.853,2.366,7.533,3.602,11.294c0.202,2.668,0.403,5.335,0.604,8.002
		c2.534,13.868,5.068,27.736,7.602,41.604c1.439,4.198,2.956,8.369,4.303,12.596c5.777,18.123,18.79,26.316,37.947,23.029
		c9.182-1.575,18.454-2.621,27.685-3.906c7.282-1.287,14.665-2.17,21.825-3.946c12.766-3.167,25.398-6.872,38.086-10.353
		c28.643-8.094,55.256-20.729,79.373-37.979c15.265-10.917,30.834-22.23,43.309-36.039c20.367-22.539,38.695-46.973,57.174-71.148
		c15.141-19.808,25.297-42.001,27.371-67.3c3.341-14.505,3.111-29.01,0.009-43.516C604.547,372.622,604.425,369.385,603.773,366.258
		z"/>
	<path fill-rule="evenodd" clip-rule="evenodd" d="M244.776,587.416c-4.303-4.001-9.081-7.958-14.362-10.354
		c-16.023-7.269-32.532-10.787-50.5-7.169c-23.754,4.784-42.656,15.832-54.272,37.526c-3.488,6.515-5.736,13.694-8.552,20.569
		c-0.813,12.319-1.645,24.636-2.366,36.96c-0.023,0.394,1.072,0.852,1.646,1.279c1.496,7.266,3.197,14.497,4.425,21.809
		c1.055,6.288,4.417,7.912,10.437,7.05c11.23-1.612,20.403-7.127,29.002-14c1.787-1.093,3.573-2.184,5.361-3.276
		c-0.229-0.432-0.458-0.864-0.687-1.296c-8.23,0-16.461,0-24.691,0c-14.899-7.796-21.767-22.499-17.979-38.493
		c1.613-6.808,4.938-8.192,10.553-3.957c2.801,2.112,5.03,4.982,8.011,8.01c2.705-9.801-0.65-17.576-3.934-25.648
		c-1.605-3.945-2.693-9.514-1.138-13.1c9.381-21.629,47.181-34.652,68.283-23.795c2.407,1.238,3.912,4.768,5.156,7.539
		c0.828,1.844,0.447,4.229,0.789,8.815c4.861-2.664,9.405-3.825,11.749-6.749c3.566-4.446,7.814-6.65,12.067-3.788
		c4.102,2.759,8.368,7.416,9.345,11.936c0.666,3.079-3.391,9.24-6.77,10.698c-6.75,2.909-14.486,3.534-23.076,5.372
		c-4.682,9.195,6.154,9.826,11.057,13.899c-13.11,17.015-35.262,24.481-50.834,16.034c-6.093-3.305-8.433-7.26-7.651-13.573
		c0.81-6.535,4.847-10.995,11.2-10.899c5.608,0.086,11.183,2.495,18.454,4.294c0.249-2.332,2.096-6.672,0.715-9.347
		c-3.112-6.03-7.098-12.271-15.323-12.348c-13.105-0.126-19.313,3.439-22.751,12.778c-5.482,14.893,0.229,37.189,12.846,46.854
		c2.939,2.251,9.012,3.817,11.791,2.302c13.697-7.468,27.05-15.665,39.977-24.415c10.501-7.108,20.205-15.375,25.945-27.224
		C253.311,602.192,252.386,594.495,244.776,587.416z"/>
	<path fill-rule="evenodd" clip-rule="evenodd" d="M370.693,662.145c-13.842-5.49-24.844-1.489-30.7,12.013
		c-3.339,7.699-5.414,15.945-8.058,23.944c-0.395,0.615-1.098,1.209-1.141,1.848c-1.17,17.512-2.311,35.025-3.29,52.546
		c-0.06,1.058,1.255,2.192,1.932,3.291c2.569,1.926,5.137,3.851,7.706,5.777c10.978,5.06,21.63,3.481,32.113-1.573
		c5.136-4.039,10.771-7.591,15.289-12.233c6.267-6.438,5.131-14.16,1.169-21.402c-4.131-7.548-10.985-10.552-19.383-9.809
		c-4.455,0.395-8,2.277-8.354,7.812c2.111,0.666,4.043,1.089,5.82,1.867c7.387,3.24,10.314,12.213,6.451,19.508
		c-4.583,8.657-10.437,9.938-18.884,4.574c-10.018-6.358-13.689-16.215-14.746-27.138c-0.898-9.299,0.693-18.441,4.555-27.875
		c3.216,3.252,5.224,6.63,8.117,7.781c2.325,0.925,5.93-0.426,8.507-1.696c0.692-0.343-0.008-4.157-0.562-6.248
		c-1.309-4.934-3.512-9.704-4.232-14.703c-0.731-5.078-1.035-10.766,5.334-13.282c6.472-2.556,12.481-1.64,16.751,3.946
		c1.559,2.039,2.281,5.822,1.561,8.273c-1.616,5.504-2.345,10.475,1.326,15.28c14.439-4.698,16.378-3.888,23.636,9.461
		c1.424,2.617,3.039,5.13,4.459,7.751c7.827,14.439,8.879,29.522,2.624,44.565c-3.25,7.813-7.962,14.467-18.771,13.882
		c-7.576-0.411-15.698,0.65-22.391,7.006c2.4,1.16,4.297,1.804,5.879,2.899c3.142,2.18,6.109,4.608,9.15,6.935
		c-2.579,3.125-4.561,7.236-7.833,9.21c-18.149,10.945-36.468,5.362-46.341-13.598c-0.843-1.618-1.871-3.139-2.813-4.705
		c-3.213,13.068-4.289,25.714,1.708,37.739c0.711,1.426,4.24,2.573,6.05,2.137c9.606-2.32,19.438-4.312,28.539-8.02
		c33.653-13.711,57.461-44.029,55.252-81.064C415.629,703.863,393.924,671.357,370.693,662.145z"/>
	<path fill-rule="evenodd" clip-rule="evenodd" d="M226.082,176.881c2.766-0.744,6.094-0.78,8.82,0.026
		c4.729,1.397,10.976,2.552,13.193,5.994c1.741,2.703-1.636,8.703-2.74,13.238c-2.699-0.929-6.76-1.069-7.84-2.935
		c-3.246-5.608-6.82-5.588-11.514-2.681c0.464,14.967,1.793,15.921,15.458,11.06c1.851-0.659,3.582-1.654,5.369-2.493
		c11.448-6.829,11.982-18.819,0.32-24.941c-4.841-2.541-11.44-1.557-17.127-2.724c-3.755-0.771-10.141-2.075-10.428-3.912
		c-0.902-5.76,4.689-7.222,9.282-8.349c1.844-0.452,3.931-0.108,5.881,0.108c12.706,1.412,22.138,7.814,28.475,18.865
		c0.492,6.276,0.984,12.552,1.476,18.827c-2.826,8.177-9.141,13.021-16.299,17.059c-7.024,1.707-14.048,3.413-21.072,5.12
		c0.003,0.357,0.005,0.714,0.007,1.071c10.983,0.952,21.966,1.904,32.948,2.856c0.532,0.402,1.047,0.952,1.619,1.018
		c18.565,2.152,37.137,4.254,55.71,6.335c4.65,0.521,9.313,0.939,12.792,1.287c0-8.161,0-15.165,0-22.169
		c0.995-2.972,1.991-5.944,2.986-8.916c4.401-4.654,8.627-9.49,13.236-13.928c15.818-15.229,36.509-16.421,54.036-3.345
		c0.693,0.517,1.7,0.614,2.701,0.955c-0.182-12.564-17.318-27.124-35.551-30.638c-0.943-0.715-1.827-1.95-2.836-2.062
		c-10.324-1.147-20.667-2.957-31.005-2.961c-26.269-0.011-52.542,0.607-78.799,1.451c-5.822,0.188-11.581,2.346-17.368,3.597
		c-9.836,1.542-19.67,3.083-29.853,4.68c1.597,3.829,3.031,6.227,3.594,8.814C213.303,175.243,217.281,179.248,226.082,176.881z
		 M334.322,194.825c-0.769,1.726-0.651,3.846-0.944,5.784c-3.327,3.246-7.058,6.172-9.912,9.791
		c-15.088,19.134-30.763,11.375-42.701-2.022c-5.375-6.031-7.995-14.519-11.864-21.891c-3.845-9.247-3.013-18.657-0.984-28.11
		c4.881-1.558,9.763-3.117,14.646-4.676c5.013-0.351,10.033-0.778,15.035-0.991c0.025,0.001,0.051,0.002,0.077,0.004
		c3.41,0.17,6.82,0.348,10.229,0.537c0.032,0.001,0.064,0.003,0.096,0.005c3.417,0.189,6.833,0.39,10.249,0.604
		c0.007,0,0.015,0.001,0.023,0.001c4.122,0.798,8.207,2.026,12.24,3.877C338.368,169.423,340.168,181.69,334.322,194.825z
		 M283.834,152.042c4.57,0.216,9.14,0.437,13.709,0.665C292.975,152.479,288.404,152.258,283.834,152.042z"/>
	<path fill-rule="evenodd" clip-rule="evenodd" d="M673.73,367.805c0.557,12.538-4.758,23.159-9.017,34.229
		c4.004-3.583,7.843-7.376,12.044-10.71c14.568-11.556,28.205-10.288,40.354,3.491c0.785,0.89,1.942,1.451,2.926,2.165
		c-0.093-1.66,0.341-3.604-0.371-4.93c-3.632-6.753-7.07-13.691-11.477-19.928c-11.98-16.957-21.094-37.217-44.94-41.328
		c-5.024,0-10.048,0-15.331,0c-7.277,0-14.533,0-21.73,0c9.357,1.379,18.725,2.758,28.092,4.139
		C667.105,342.139,673.077,353.103,673.73,367.805z"/>
	<path fill-rule="evenodd" clip-rule="evenodd" d="M746.996,486.87c-1.322,0.104-3.275-1.807-4.164-3.296
		c-2.668-4.468-4.656-9.354-7.451-13.73c-4.566-7.149-12.241-7.671-19.266-6.423c-3.049,0.542-7.178,5.276-7.537,8.475
		c-0.7,6.228,0.479,12.8,1.693,19.072c1.037,5.355,5.732,4.333,9.023,2.921c2.422-1.039,4.066-3.896,6.059-5.941
		c-2.395-1.634-4.746-4.541-7.193-4.625c-4.489-0.152-6.278-2.285-5.617-5.84c0.561-2.998,2.322-7.516,4.436-8.087
		c3.471-0.939,8.693-0.479,11.293,1.671c3.566,2.947,5.372,8.024,7.932,12.189c2.565,13.586,1.307,12.743,25.979,8.935
		c-0.73-1.815-1.406-3.497-2.082-5.18c-8.417-21.9-16.703-43.855-25.377-65.654c-1.482-3.727-4.621-6.794-7-10.172
		c1.531,4.381,3.202,8.726,4.568,13.164c1.899,6.163,4.205,12.458-1.713,17.913c-6.699,2.92-13.357,5.933-20.114,8.712
		c-2.776,1.142-5.761,1.775-8.649,2.641c-12.07-0.646-23.99-2.178-34.121-9.449c-7.467-5.359-10.852-12.606-8.098-22.013
		c1.801-6.154,3.303-12.396,4.938-18.598c-7.208,4.91-14.417,9.82-23.286,15.863c16.83,24.579,34.263,50.037,51.693,75.495
		c2.008-14.52-1.805-29.69,13.373-38.78c8.023-4.059,16.393-3.406,24.829-1.82c6.272,5.417,13.21,10.27,18.511,16.512
		c2.299,2.707,1.592,8.285,1.473,12.536C751.09,484.655,748.527,486.75,746.996,486.87z"/>
	<path fill-rule="evenodd" clip-rule="evenodd" d="M401.185,407.501c-1.54,1.145-3.481,1.749-5.236,2.604
		c0.499,1.075,0.998,2.148,1.496,3.222c4.939,0.855,9.878,1.708,14.816,2.562c7.508,7.255,13.175,0.498,18.162-3.279
		c17.276-13.081,33.016-27.937,44.795-46.292c3.973-6.191,5.909-13.69,8.775-20.592c-5.469,5.379-11.793,9.127-19.1,11.003
		c7.307-1.876,13.631-5.625,19.102-11.008c7.92-14.323,6.742-24.57-4.578-31.427c0.475,13.301-0.129,25.95-16.066,29.518
		c-6.477-2.544-12.951-5.088-19.6-7.701c0,3.292,0,7.442,0,11.593c0.016,1.672,0.031,3.345,0.048,5.018
		c-0.687,1.021-1.597,1.957-2.027,3.076C433.531,377.193,419.396,393.958,401.185,407.501z"/>
	<path fill-rule="evenodd" clip-rule="evenodd" d="M346.912,353.462c-7.715,1.997-15.872-1.298-19.283-7.484
		c-0.766-1.389-1.67-2.701-3.564-5.733c-3.823,7.066-6.929,12.806-10.035,18.546c7.458,3.19,14.917,6.381,22.375,9.57
		c0,0,0,0.001-0.001,0.002c-7.458-3.19-14.916-6.381-22.375-9.572c-4.827,11.388-9.654,22.775-14.481,34.164
		c-1.134,2.33-2.694,4.551-3.326,7.01c-2.475,9.632-4.656,19.34-6.946,29.02c1.808,0.543,4.018,2.031,5.354,1.464
		c5.664-2.402,11.068-5.417,16.567-8.207c9.411-0.989,17.327-4.447,23.768-11.896c11.312-13.083,20.252-27.483,26.69-43.489
		c1.432-3.834,3.915-7.628,4.063-11.511c0.264-6.9,3.923-14.5-2.543-20.638c-5.793-2.896-5.933,0.524-6.072,4.983
		C356.894,346.431,353.914,351.649,346.912,353.462z"/>
	<path fill-rule="evenodd" clip-rule="evenodd" d="M201.334,214.313c8.549,2.769,12.25-0.674,9.964-9.215
		c-3.061-11.438-6.583-22.817-10.936-33.814c-1.834-4.633-4.66-11.023-13.565-7.312c2.076,2.41,3.787,4.324,5.418,6.303
		c6.807,8.255,11.124,17.578,11.207,28.407c0.033,4.333-1.438,8.436-7.178,6.3c-6.712-2.498-13.737-4.717-19.706-8.507
		c-6.99-4.439-14.2-9.532-19.072-16.023c-4.75-6.328-7.899-8.429-16.293-2.803c12.833,9.215,24.944,18.604,37.788,26.851
		C185.742,208.853,193.607,211.81,201.334,214.313z"/>
	<path fill-rule="evenodd" clip-rule="evenodd" d="M496.521,543.619c2.178-1.539,4.729-2.744,6.471-4.677
		c8.727-9.684,17.242-19.56,25.832-29.367c1.021-1.807,2.042-3.612,3.062-5.419c3.984-5.689,7.971-11.377,11.955-17.064
		c-0.555-0.494-1.107-0.987-1.662-1.48c-1.086,0.271-2.322,0.293-3.235,0.849c-17.145,10.436-35.03,14.633-54.425,6.692
		c-1.906-1.029-3.812-2.059-5.742-3.1c0,15.132,0,29.258,0,43.383c-0.918,8.771-1.837,17.542-2.756,26.312
		c0.613,0.523,1.227,1.045,1.838,1.568C484.08,555.417,490.301,549.519,496.521,543.619z"/>
	<path fill-rule="evenodd" clip-rule="evenodd" d="M554.477,458.965c0.804-4.087,2.959-7.901,3.812-11.983
		c1.343-6.42,2.107-12.96,3.121-19.453c0.572-2.734,1.146-5.473,1.722-8.21c0.69-9.192,1.38-18.383,2.069-27.576
		c-0.766-0.095-1.531-0.188-2.299-0.283c-0.934,4.638-1.867,9.276-2.801,13.915c-1.629,2.733-2.709,6.117-5.006,8.061
		c-4.471,3.783-8.551,9.033-15.996,6.134c-12.428-4.839-16.951-12.933-14.058-26.046c0.577-2.614,0.794-5.308,1.177-7.964
		c-0.682-0.462-1.363-0.924-2.045-1.386c-5.432,3.991-10.865,7.982-16.297,11.973c0,0,0,0,0-0.001
		c-4.924,6.863-9.85,13.727-14.775,20.591c-5.354,8.636-6.393,18.153-5.243,27.946c0.329,2.809,1.993,5.46,3.044,8.184
		c1.102,2.558,2.205,5.113,3.305,7.683c2.754,7.891,7.656,13.371,16.394,14.534c6.903,4.569,13.989,5.426,21.331,1.044
		C543.108,475.224,552.012,471.509,554.477,458.965z M529.807,434.974L529.807,434.974c0.912-0.054,1.825-0.107,2.736-0.161
		C531.631,434.866,530.717,434.92,529.807,434.974z"/>
	<path fill-rule="evenodd" clip-rule="evenodd" d="M467.559,290.67c8.816-0.644,17.635-1.288,26.451-1.932
		c0.165-0.287,0.332-0.575,0.497-0.862c-6.718-1.752-13.437-3.504-20.153-5.256c-1.938-0.463-3.877-0.924-5.814-1.387
		c-12.428-4.193-24.984-3.506-38.006-0.342c1.97,1.214,3.942,2.429,5.912,3.644c4.581,6.527,9.161,13.057,13.161,18.758
		C455.272,299.308,461.416,294.989,467.559,290.67z"/>
	<path fill-rule="evenodd" clip-rule="evenodd" d="M295.005,456.423c5.241,6.068,10.85,11.819,17.758,19.187
		c3.486-10.838,6.443-20.035,9.401-29.232c-0.487-0.951-0.976-1.902-1.463-2.854c-8.473,2.622-16.981,5.144-25.351,8.062
		C294.697,451.814,294.216,455.507,295.005,456.423z"/>
	<path fill-rule="evenodd" clip-rule="evenodd" d="M305.123,604.295c-0.095,7.457,4.109,12.362,10.712,12.496
		c6.428,0.13,12.379-4.934,12.222-10.399c-0.167-5.816-6.353-12.354-11.843-12.514C309.945,593.694,305.2,598.15,305.123,604.295z"
		/>
	<path fill-rule="evenodd" clip-rule="evenodd" d="M448.395,479.597c-6.555-7.713-11.879-13.978-18.341-21.583
		c-4.288,9.911-7.819,18.074-11.35,26.237c0.552,0.763,1.104,1.526,1.658,2.29C429.191,484.354,438.021,482.167,448.395,479.597z"/>
	<path fill-rule="evenodd" clip-rule="evenodd" d="M388.452,205.919c-3.145,5.285-6.811,10.258-10.249,15.369
		c-4.079-0.944-8.156-1.887-12.235-2.831c-3.943-1.391-7.813-3.12-11.867-4.004c-1.618-0.352-4.892,0.747-5.277,1.899
		c-2.296,6.869-3.968,13.946-6.257,22.47c8.586-3.615,15.311-6.446,22.037-9.277c16.973-6.028,34.321-10.196,53.103-11.332
		c-2.269-1.669-4.539-3.338-6.808-5.008c-3.938-2.939-8.028-5.697-11.772-8.864C394.777,200.659,391.551,200.711,388.452,205.919z"
		/>
	<path fill-rule="evenodd" clip-rule="evenodd" d="M630.492,376.729c-6.41-4.473-0.547-9.074-0.141-13.617
		c1.857-3.222,4.022-6.314,5.444-9.717c0.739-1.771,0.923-5.485,0.079-5.939c-7.096-3.814-14.488-7.076-22.311-10.749
		c3.164,12.157,5.803,22.293,8.442,32.429c1.71,14.222,3.421,28.444,5.247,43.626c4.625-4.614,9.211-9.19,13.797-13.767
		c2.098-2.221,4.195-4.44,6.438-6.812C641.312,386.567,635.902,381.648,630.492,376.729z"/>
	<path fill-rule="evenodd" clip-rule="evenodd" d="M135.434,206.107c7.431,1.099,14.863,2.198,23.788,3.518
		c-7.045-6.62-12.804-12.031-18.27-17.166c-1.77,3.861-3.454,7.533-5.137,11.206c-2.496-1.817-6.143-3.102-7.272-5.55
		c-3.423-7.418,0.839-13.526,6.539-20.078c-9.783,0.726-16.304,4.554-21.558,10.257c-3.542,3.844-3.688,8.774,1.672,11.127
		C121.672,202.264,128.665,203.931,135.434,206.107z"/>
	<path fill-rule="evenodd" clip-rule="evenodd" d="M527.654,315.589c-4.42-5.209-8.838-10.418-13.256-15.628
		c-0.551,0.474-1.102,0.948-1.653,1.421c2.663,4.736,5.327,9.473,7.989,14.209c-0.756,9.66-1.512,19.319-2.268,28.979
		c-2.406,5.494-4.812,10.988-7.873,17.978c4.722-3.422,8.049-5.835,11.377-8.247c8.9-0.719,17.803-1.438,28.428-2.297
		c-4.801-7.899-9.416-15.491-14.031-23.083C533.463,324.477,530.559,320.033,527.654,315.589z"/>
	<path fill-rule="evenodd" clip-rule="evenodd" d="M776.711,592.498c1.813-1.926,3.754-3.832,4.092-5.989
		c2.229-14.234-1.143-27.695-7.316-40.541c-8.471,3.479-16.037,0.43-23.05-3.85c-7.569-4.62-14.86-9.75-21.956-15.08
		c-6.131-4.606-5.189-11.682,2.258-13.137c9.308-1.817,19.011-1.598,28.542-2.297c2.392-0.175,4.774-0.503,7.161-0.761
		c-1.541-1.93-3.082-3.859-4.623-5.788c-8.113,0.143-16.283-0.231-24.319,0.632c-4.539,0.487-8.859,3.01-13.277,4.617
		c-4.227,1.459-8.456,2.917-14.103,4.865c13.977,23.109,35.832,31.525,57.391,40.355c8.941,6.267,10.427,10.383,6.028,18.067
		c-1.638,2.86-4.016,5.297-6.056,7.927c-3.871-0.697-7.744-1.395-11.615-2.091l-0.001,0.001c1.973-3.909,3.946-7.818,6.009-11.902
		c-6.59-2.637-13.095-5.239-19.602-7.842c-0.664,0.699-1.326,1.397-1.99,2.097c5.088,5.966,10.178,11.934,15.268,17.9
		c3.549,9.039,11.58,15.212,19.359,14.879c0.317-0.31,0.607-0.623,0.887-0.938c0.055-0.062,0.108-0.124,0.161-0.186
		C776.225,593.127,776.479,592.814,776.711,592.498z M779.497,571.754c-0.001,0.445,0.006,0.89,0.017,1.335
		C779.503,572.644,779.496,572.199,779.497,571.754z M777.58,591.176c0.014-0.022,0.027-0.045,0.041-0.068
		C777.607,591.131,777.594,591.153,777.58,591.176z M778.301,589.786c0.012-0.028,0.024-0.057,0.037-0.084
		C778.325,589.729,778.312,589.758,778.301,589.786z M778.866,588.346c0.005-0.016,0.01-0.031,0.016-0.048
		C778.876,588.314,778.871,588.33,778.866,588.346z M779.827,582.454c0-0.013,0.001-0.024,0.001-0.037
		C779.828,582.43,779.827,582.441,779.827,582.454z M779.845,580.926c0-0.006,0-0.011,0-0.017
		C779.845,580.915,779.845,580.92,779.845,580.926z M779.521,573.367c0.014,0.43,0.03,0.858,0.05,1.287
		C779.552,574.226,779.535,573.797,779.521,573.367z M779.592,575.062c0.015,0.298,0.03,0.595,0.047,0.892
		C779.622,575.657,779.606,575.36,779.592,575.062z M779.54,569.999c0.024-0.484,0.058-0.967,0.107-1.449
		C779.598,569.032,779.564,569.516,779.54,569.999z M779.498,571.528c0.003-0.46,0.013-0.919,0.034-1.378
		C779.511,570.609,779.501,571.068,779.498,571.528z"/>
	<path fill-rule="evenodd" clip-rule="evenodd" d="M185.494,189.394c-1.69-5.125-3.748-10.162-4.987-15.393
		c-2.008-8.475-6.807-7.197-14.128-3.643c5.953,7.292,11.234,13.76,16.516,20.229C183.762,190.189,184.628,189.792,185.494,189.394z
		"/>
	<path fill-rule="evenodd" clip-rule="evenodd" d="M739.957,526.977c0.02,0.82,0.039,1.642,0.061,2.462
		c10.352,1.88,20.701,3.761,31.052,5.641c0.442-0.73,0.884-1.461,1.327-2.191c-1.612-3.351-3.225-6.702-4.836-10.054
		c-3.956,0.517-7.91,1.032-11.865,1.548C750.448,525.247,745.203,526.111,739.957,526.977z"/>
	<path fill-rule="evenodd" clip-rule="evenodd" d="M477.029,396.122c-0.453-0.325-0.906-0.65-1.359-0.976
		c-5.188,4.953-10.375,9.905-15.562,14.857c-10.229,4.718-20.459,9.436-31.26,14.417c5.899,4.91,11.914,9.918,17.929,14.926
		c6.132,7.651,12.263,15.305,18.394,22.956c0.575-0.318,1.15-0.639,1.727-0.958c-2.811-18.548-4.402-36.998,3.764-54.667
		C472.784,403.159,474.906,399.641,477.029,396.122z"/>
	<path fill-rule="evenodd" clip-rule="evenodd" d="M459.025,526.158c-3.757,3.449-5.811,5.334-7.863,7.219
		c-5.381,4.574-10.761,9.146-17.383,14.773c6.99,3.362,12.857,6.186,18.725,9.008c1.373,0.853,2.746,1.705,4.699,2.919
		C457.815,548.683,458.361,538.525,459.025,526.158z"/>
	<path fill-rule="evenodd" clip-rule="evenodd" d="M400.117,281.18c-15.101,4.19-29.64,9.619-42.811,18.42
		c8.938,4.264,17.158,8.186,25.887,12.35c2.637-8.732,3.293-18.984,12.763-24.403c6.742-2.77,13.485-5.541,20.228-8.311
		c-0.11-0.489-0.22-0.979-0.33-1.467C410.608,278.905,405.363,280.042,400.117,281.18z"/>
	<path fill-rule="evenodd" clip-rule="evenodd" d="M359.239,439.46c3.139,6.545,6.279,13.09,10.165,21.191
		c6.122-7.991,11.133-14.532,16.145-21.073c1.507-1.671,3.013-3.342,6.135-6.807c-13.139,0.86-23.918,1.566-36.171,2.369
		C357.335,437.252,358.287,438.355,359.239,439.46z"/>
	<path fill-rule="evenodd" clip-rule="evenodd" d="M421.412,316.969c-0.92-1.789-1.839-3.579-2.49-4.844
		c-2.26,7.05-3.591,14.342-6.88,20.604c-3.477,6.619-10.619,7.37-20.37,3.961c-1.354-0.821-2.707-1.642-4.821-2.925
		c-1.031,9.047-1.904,16.713-2.779,24.379c-5.734,20.699-16.877,38.075-32.414,52.751c-1.592,1.125-3.184,2.249-5.452,3.852
		c11.781-0.831,22.272-1.473,32.735-2.428c1.356-0.124,2.565-1.865,3.843-2.856c19.187-15.437,31.611-35.316,38.605-58.763
		c0,0,0-0.001,0-0.001C425.113,339.457,426.702,328.215,421.412,316.969z"/>
	<path fill-rule="evenodd" clip-rule="evenodd" d="M403.712,603.426c17.116-3.426,33.385-8.9,46.997-20.314
		c2.209-1.852,3.445-4.862,5.131-7.336c-2.729-0.699-5.458-1.398-8.188-2.098c-0.854-0.453-1.703-1.292-2.561-1.299
		c-12.633-0.107-25.301-0.657-37.887,0.104c-6.316,0.384-12.486,3.202-18.722,4.919c-6.396,1.221-12.793,2.443-19.19,3.666
		c0.418-1.001,0.835-2.002,1.254-3.004c2.14-1.2,4.62-2.035,6.369-3.657c20.326-18.858,40.757-37.612,60.646-56.923
		c5.59-5.428,9.5-12.585,14.182-18.948c-0.529-0.46-1.059-0.921-1.588-1.381c-23.952,8.401-45.545,21.196-66.006,36.099
		c-5.085,0.519-2.738-2.122-1.832-4.234c2.642-6.15,5.239-12.318,7.855-18.479c9.895-21.089,17.363-42.794,17.923-66.391
		c-2.147,0.292-3.208,0.915-3.931,1.812c-22.067,27.364-38.832,58.032-55.307,88.88c-0.192-2.707-0.617-5.42-0.535-8.118
		c0.424-14.047,1.62-28.107,1.25-42.129c-0.229-8.676-2.77-17.291-4.273-25.932c-0.687-2.873-1.374-5.747-2.061-8.62
		c-0.708,0.02-1.417,0.038-2.125,0.058c-2.051,5.748-4.511,11.389-6.076,17.267c-4.706,17.677-9.064,35.446-13.558,53.179
		c-1.306,6.968-2.613,13.936-3.868,20.631c-0.477-0.592-1.327-1.648-2.177-2.705c-1.762-5.901-2.715-12.208-5.435-17.628
		c-8.477-16.896-17.622-33.455-26.507-50.145c-0.855-0.957-1.71-1.916-3.48-3.896c1.546,39.215,2.727,76.957,20.179,111.791
		c-5.017-16.217-10.468-32.354-8.487-49.761c3.306-0.299,8.524-2.043,9.583-0.644c4.255,5.63,7.223,12.23,10.666,18.473
		c1.843,9.633,3.686,19.265,5.876,30.713c2.016-12.917,3.757-24.066,5.498-35.215c3.029-8.695,2.624-18.847,11.54-27.607
		c6.547,20.102-1.495,37.685-1.752,55.66c2.276-2.132,3.836-4.529,5.433-6.905c12.313-18.322,24.566-36.688,37.044-54.897
		c1.398-2.04,4.083-3.198,6.172-4.767c0.728,0.608,1.455,1.217,2.182,1.823c-7.383,22.459-20.873,41.999-32.284,62.825
		c12.361-8.041,22.051-19.976,39.56-21.35c-4.207,12.012-11.258,19.466-18.74,26.621c-8.177,6.528-16.354,13.056-24.529,19.584
		c0.352,0.533,0.704,1.065,1.056,1.6c4.638-2.105,9.274-4.211,13.911-6.316c9.025-2.164,18.051-4.329,27.076-6.494
		c9.988-1.652,20.019-4.873,30.603-0.182c-2.241,3.197-3.744,5.344-5.249,7.49c-14.89,5.242-29.78,10.483-44.669,15.725
		c-6.596,1.146-13.193,2.293-19.79,3.439c0.144,0.793,0.287,1.588,0.431,2.381c6.377-1.21,12.756-2.421,19.134-3.631
		c0,0-0.001,0.064-0.003,0.119c-0.002,0.022-0.004,0.046-0.007,0.069c0.001,0,0.002,0,0.003,0l0,0
		C381.536,606.041,392.625,604.733,403.712,603.426z"/>
	<path fill-rule="evenodd" clip-rule="evenodd" d="M704.394,410.427c-9.935,5.83-19.544,12.215-29.29,18.367
		c-0.07,1.035-0.301,2.959-0.186,2.98c12.309,2.231,24.491,2.678,36.072-3.26c7.43-1.936,6.441-7.207,4.506-12.342
		C713.623,411.2,710.455,406.871,704.394,410.427z"/>
	<path fill-rule="evenodd" clip-rule="evenodd" d="M305.011,164.72c-13.817-3.377-19.545,1.51-15.851,14.544
		c2.188,7.722,6.081,15.015,9.762,22.216c0.799,1.564,3.969,1.916,6.045,2.826c4.749-12.336,3.372-24.987,1.839-37.625
		C306.719,165.964,305.632,165.37,305.011,164.72z"/>
</g>
</svg>
